<?xml version="1.0" encoding="utf-8"?>
<!-- Generator: Adobe Illustrator 25.0.0, SVG Export Plug-In . SVG Version: 6.00 Build 0)  -->
<svg version="1.1" id="Layer_1" xmlns="http://www.w3.org/2000/svg" xmlns:xlink="http://www.w3.org/1999/xlink" x="0px" y="0px"
	 viewBox="0 0 440.9 165.4" style="enable-background:new 0 0 440.9 165.4;" xml:space="preserve">
<style type="text/css">
	.st0{fill:#091F40;}
	.st1{fill:#E53C2E;}
	.st2{fill:#09203F;}
	.st3{fill:#FFFFFF;}
	.st4{fill:#D91A32;}
	.st5{fill:#00428B;}
	.st6{fill:#003B75;}
	.st7{fill:#DA2128;}
	.st8{fill:#CFD2D3;}
	.st9{fill:url(#SVGID_1_);}
	.st10{fill:url(#SVGID_2_);}
	.st11{fill:url(#SVGID_3_);}
	.st12{fill:url(#SVGID_4_);}
	.st13{fill:url(#SVGID_5_);}
	.st14{fill:url(#SVGID_6_);}
	.st15{fill:url(#SVGID_7_);}
	.st16{fill:url(#SVGID_8_);}
	.st17{fill:#231F20;}
	.st18{fill:#BF0D3E;}
	.st19{fill:#041E42;}
	.st20{fill:#154270;}
	.st21{fill:#ED2125;}
	.st22{fill:#007AC2;}
	.st23{fill:#E4002B;}
	.st24{fill:#FFD659;}
</style>
<g>
	<path class="st0" d="M237.3,43.8c10.7,0,17.8,8.2,17.8,20.5v22.8c0,0.3-0.3,0.6-0.6,0.6h-10.5c-0.3,0-0.6-0.3-0.6-0.6V64.4
		c0-4.8-2.3-9.9-8.8-9.9h-0.2c-5.1,0.3-9.1,4.5-9.2,9.6v23c0,0.3-0.3,0.6-0.6,0.6h-10.4c-0.3,0-0.6-0.3-0.6-0.6V44.9
		c0-0.3,0.2-0.6,0.6-0.6c0,0,0,0,0,0h10c0.3,0,0.6,0.3,0.6,0.6v3.8C228.8,45.3,232.7,43.8,237.3,43.8 M396.4,80
		c-0.2,0.2-0.1,0.6,0.1,0.8c6.2,6.2,13,7,18.8,7c8.2,0,14.4-3.2,16.9-8.6c0.8-1.7,1.2-3.5,1.2-5.4c0-11.1-9.6-13.2-17.9-13.7
		c-6.7-0.4-6.7-2.8-6.7-3.5c0-2.8,4.5-3.1,6.5-3.1c3.8,0,6.5,0.9,8.9,2.9c0.2,0.2,0.6,0.2,0.8,0l5.9-6.9c0.2-0.3,0.2-0.6-0.1-0.8
		c-4.3-3.6-8.9-5.1-15.7-5.1c-4.1-0.1-8.1,0.9-11.6,2.9c-3.8,2.1-6.2,6.1-6.1,10.5c0,7.7,6.2,12.5,17.4,13.3
		c6.3,0.4,7.1,2.2,7.1,3.8c0,2.3-3.1,3.5-6.1,3.5h-0.3c-4.7,0-9.2-1.7-12.7-4.9c-0.2-0.2-0.6-0.2-0.8,0c0,0,0,0,0,0.1L396.4,80z
		 M291.5,72.9c1.7-2.2,2.6-5,2.5-7.8c0-5.4-3.3-11.1-11.3-11.1c-6.6,0-11,4.5-11,11.2s4.4,11.3,11,11.3
		C286,76.6,289.2,75.3,291.5,72.9 M293.7,44.8c0-0.3,0.3-0.6,0.6-0.6h10.4c0.3,0,0.6,0.3,0.6,0.6v42.2c0,0.3-0.3,0.6-0.6,0.6h-10.4
		c-0.3,0-0.6-0.3-0.6-0.6v-3.2c-3.6,3.4-7.9,3.4-11.7,3.5h-0.6c-6.2,0-11.5-2-15.2-5.6c-4-3.9-6.1-9.6-6.1-16.5
		c0-13.2,8.5-21.8,21.5-21.8h0.2c4.1,0,8.4,0.4,11.9,3.2L293.7,44.8z M165.1,33.8V23.6c0-0.4-0.3-0.7-0.7-0.7l0,0h-37.6
		c-0.4,0-0.7,0.3-0.7,0.7v63.3c0,0.4,0.3,0.7,0.7,0.7h0h10.2c0.4,0,0.7-0.3,0.7-0.7V61.1c0-0.4,0.3-0.7,0.7-0.7h18.9
		c0.4,0,0.7-0.3,0.7-0.7c0,0,0,0,0,0V49.5c0-0.4-0.3-0.7-0.7-0.7l0,0h-18.9c-0.4,0-0.7-0.3-0.7-0.7V35.3c0-0.4,0.3-0.7,0.7-0.7h26
		C164.8,34.5,165.1,34.2,165.1,33.8C165.1,33.8,165.1,33.8,165.1,33.8 M386.4,74.1c-0.2-0.2-0.6-0.3-0.8-0.1c-2,1.7-4.5,2.6-7.1,2.6
		c-6.3,0-10.8-4.6-10.8-11.1s4.4-11.1,10.8-11.1c2.6,0,5.1,1,7.1,2.6c0.2,0.2,0.6,0.2,0.8,0l6.7-7.1c0.2-0.2,0.2-0.6,0-0.8
		c-3.9-3.9-9.2-6-14.8-5.8c-13.6,0-22.3,8.7-22.3,22.3s8.8,22.2,22.3,22.2c5.5,0.2,10.9-2,14.7-5.9c0.2-0.2,0.2-0.6,0-0.8
		L386.4,74.1z M332.4,87.7c0.3,0,0.6-0.3,0.6-0.6v-9.5c0-0.3-0.2-0.6-0.6-0.6c0,0,0,0,0,0c-1.1,0-4.4,0-5.1,0
		c-3-0.1-4.4-1.6-4.4-4.8V56h9.5c0.3,0,0.6-0.2,0.6-0.6c0,0,0,0,0,0V44.9c0-0.3-0.2-0.6-0.6-0.6c0,0,0,0,0,0H323v-9.2
		c0-0.3-0.3-0.6-0.6-0.6h-10.5c-0.3,0-0.6,0.3-0.6,0.6v37c0,9.8,5.5,15.5,15.3,15.5L332.4,87.7L332.4,87.7z M193.8,72.9
		c1.7-2.2,2.6-5,2.5-7.8c0-5.4-3.3-11.1-11.3-11.1c-6.6,0-11,4.5-11,11.2s4.4,11.3,11,11.3C188.3,76.6,191.5,75.3,193.8,72.9
		 M196,44.8c0-0.3,0.3-0.6,0.6-0.6h10.4c0.3,0,0.6,0.2,0.6,0.6c0,0,0,0,0,0v42.2c0,0.3-0.3,0.6-0.6,0.6h-10.4
		c-0.3,0-0.6-0.2-0.6-0.6c0,0,0,0,0,0v-3.2c-3.6,3.4-7.9,3.4-11.7,3.5h-0.6c-6.2,0-11.5-2-15.2-5.6c-4-3.9-6.1-9.6-6.1-16.5
		c0-13.2,8.4-21.8,21.5-21.8h0.2c4.1,0,8.4,0.4,11.9,3.2L196,44.8z M339.3,87.7h10.5c0.3,0,0.6-0.3,0.6-0.6V44.8
		c0-0.3-0.2-0.6-0.6-0.6c0,0,0,0,0,0h-10.5c-0.3,0-0.6,0.2-0.6,0.6c0,0,0,0,0,0v42.2C338.7,87.4,339,87.7,339.3,87.7 M351.1,31.4
		c0-8.5-12.9-8.5-12.9,0S351.1,39.9,351.1,31.4"/>
	<path class="st1" d="M108.4,10.7L97.6,27.5c-0.2,0.3-0.6,0.5-1,0.3c-25-12.6-53.9,10.5-79.3,5c-0.2-0.1-0.4-0.2-0.6-0.4L0.2,7.2
		C-0.2,6.7,0,6,0.5,5.7c0.2-0.2,0.5-0.2,0.8-0.2C7.7,7,14.1,8,20.6,8.7c38.7,2.1,59.6-21.1,87.6,0.9
		C108.6,9.8,108.6,10.3,108.4,10.7z M76.8,59c0.2,0.1,0.4,0,0.6-0.2l13.2-20.4c0.1-0.2,0.1-0.5-0.2-0.6c0,0-0.1,0-0.1,0
		c-19-6.5-36.7,6-63.8,6.7c-0.6,0-1.1,0.6-1.1,1.2c0,0.2,0.1,0.4,0.2,0.5l29.3,45.1c0.2,0.3,0.6,0.5,1,0.3c0.2-0.1,0.4-0.4,0.4-0.7
		l-6.3-28.6c0-0.2,0.1-0.5,0.3-0.6C52.4,60.9,69,55.3,76.8,59z"/>
	<path class="st0" d="M440.9,39.7c0,2.1-1.7,3.8-3.8,3.8s-3.8-1.7-3.8-3.8c0,0,0,0,0,0c0-2.1,1.7-3.8,3.8-3.8S440.9,37.6,440.9,39.7
		C440.9,39.7,440.9,39.7,440.9,39.7z M437.1,42.9c1.7,0.1,3-1.2,3.1-2.9c0-0.1,0-0.2,0-0.3c0-1.7-1.4-3.1-3.1-3.1
		c-1.7,0-3.1,1.4-3.1,3.1c0,0,0,0,0,0c-0.1,1.7,1.1,3.1,2.8,3.2C436.9,42.9,437,42.9,437.1,42.9L437.1,42.9z M437.7,40.1
		c0.7-0.1,1.1-0.8,1-1.4c-0.1-0.6-0.7-1.1-1.3-1h-1.8v3.9h0.6v-1.4h0.8l1.2,1.4h0.6v-0.1L437.7,40.1z M437.5,38.2
		c0.4,0,0.7,0.3,0.7,0.7s-0.3,0.7-0.7,0.7c0,0,0,0,0,0h-1.2v-1.4L437.5,38.2z"/>
</g>
<g>
	<g>
		<g>
			<path class="st2" d="M11.6,123.5c1,0,1.9,0.2,2.8,0.6c0.8,0.3,1.5,0.9,2,1.5c0.5,0.6,0.9,1.3,1.2,2.1c0.3,0.8,0.4,1.6,0.4,2.5
				c0,0.8-0.1,1.7-0.4,2.5c-0.3,0.8-0.7,1.5-1.2,2.1c-0.6,0.6-1.3,1.1-2,1.5c-0.9,0.4-1.9,0.6-2.9,0.5c-1,0-2-0.2-2.9-0.6
				c-0.8-0.3-1.5-0.8-2-1.5c-0.5-0.6-1-1.3-1.2-2.1C5.1,131.8,5,131,5,130.1c0-0.9,0.1-1.9,0.5-2.7c0.3-0.8,0.7-1.5,1.3-2.1
				c0.6-0.6,1.3-1.1,2.1-1.4C9.7,123.6,10.7,123.4,11.6,123.5z M7,130.2c0,0.6,0.1,1.1,0.3,1.7c0.2,0.5,0.5,1.1,0.8,1.5
				c0.4,0.5,0.9,0.8,1.4,1.1c0.6,0.3,1.3,0.4,2,0.4c0.7,0,1.4-0.1,2-0.4c0.5-0.2,1-0.6,1.4-1c0.4-0.4,0.6-0.9,0.8-1.5
				c0.2-0.6,0.3-1.2,0.3-1.8c0-0.6-0.1-1.2-0.3-1.7c-0.2-0.6-0.4-1.1-0.8-1.5c-0.4-0.5-0.9-0.8-1.4-1.1c-0.6-0.3-1.3-0.5-2-0.4
				c-0.7,0-1.3,0.1-2,0.4c-0.5,0.2-1,0.6-1.4,1c-0.4,0.4-0.7,1-0.9,1.5C7.1,128.9,7.1,129.5,7,130.2L7,130.2z"/>
			<path class="st2" d="M20.9,136.4v-12.7h9v2h-7v3.9h6.6v1.9H23v5L20.9,136.4z"/>
			<path class="st2" d="M32.7,136.4v-12.7h9v2h-7v3.9h6.6v1.9h-6.6v5L32.7,136.4z"/>
			<path class="st2" d="M44.6,136.4v-12.7h2v12.7H44.6z"/>
			<path class="st2" d="M60.9,134.8c-0.6,0.6-1.4,1.1-2.2,1.4c-0.8,0.3-1.7,0.5-2.6,0.5c-1,0-2-0.2-3-0.5c-0.8-0.3-1.5-0.8-2.1-1.5
				c-0.5-0.6-1-1.3-1.2-2.1c-0.5-1.6-0.5-3.3,0-4.9c0.3-0.8,0.7-1.5,1.2-2.1c0.6-0.6,1.3-1.2,2.1-1.5c0.9-0.4,2-0.6,3-0.6
				c0.9,0,1.7,0.2,2.5,0.5c0.8,0.3,1.5,0.8,2.2,1.5l-1.4,1.3c-0.4-0.4-1-0.8-1.5-1c-0.6-0.2-1.1-0.3-1.7-0.3c-0.7,0-1.4,0.1-2.1,0.4
				c-0.6,0.3-1.1,0.6-1.5,1.1c-0.4,0.4-0.7,1-0.8,1.5c-0.2,0.6-0.3,1.1-0.3,1.7c0,0.6,0.1,1.2,0.3,1.7c0.2,0.5,0.5,1,0.8,1.5
				c0.4,0.4,0.9,0.8,1.5,1c0.7,0.3,1.4,0.4,2.1,0.4c0.6,0,1.2-0.1,1.8-0.4c0.6-0.2,1.1-0.6,1.6-1L60.9,134.8z"/>
			<path class="st2" d="M63.4,136.4v-12.7h2v12.7H63.4z"/>
			<path class="st2" d="M77.9,133.8H71l-1.2,2.7h-2.2l5.7-12.7h2.2l5.7,12.7h-2.1L77.9,133.8z M74.5,125.9l-2.7,6h5.4L74.5,125.9z"
				/>
			<path class="st2" d="M85.6,123.7v10.8h6.7v1.9h-8.7v-12.7L85.6,123.7z"/>
		</g>
		<g>
			<path class="st2" d="M7.9,151.3v3.9h-2v-12.7h5.9c0.9,0,1.8,0.2,2.5,0.7c0.6,0.4,1.2,1,1.5,1.6c0.7,1.3,0.7,2.9,0,4.3
				c-0.4,0.7-0.9,1.2-1.5,1.6c-0.8,0.5-1.6,0.7-2.5,0.7L7.9,151.3z M7.9,149.4h3.9c0.5,0,1-0.1,1.4-0.4c0.4-0.2,0.6-0.5,0.8-0.9
				c0.4-0.8,0.4-1.7,0-2.5c-0.4-0.8-1.3-1.4-2.2-1.3H7.9V149.4z"/>
			<path class="st2" d="M26.7,152.6h-6.9l-1.2,2.7h-2.1l5.7-12.7h2.2l5.7,12.7h-2.2L26.7,152.6z M23.3,144.7l-2.7,6H26L23.3,144.7z"
				/>
			<path class="st2" d="M43.3,155.2h-2.4l-3.9-4.4h-2.7v4.4h-2v-12.7h5.9c0.7,0,1.3,0.1,1.9,0.3c0.5,0.2,1,0.5,1.4,0.9
				c0.4,0.4,0.7,0.8,0.8,1.3c0.2,0.5,0.3,1,0.3,1.6c0,0.4-0.1,0.9-0.2,1.3c-0.2,0.9-0.8,1.7-1.7,2.1c-0.5,0.3-1,0.4-1.6,0.5l3.8,4.2
				L43.3,155.2z M34.4,144.3v4.6h3.9c0.4,0,0.7-0.1,1.1-0.2c0.3-0.1,0.5-0.3,0.8-0.5c0.2-0.2,0.3-0.5,0.4-0.7c0.2-0.6,0.2-1.2,0-1.7
				c-0.1-0.3-0.2-0.5-0.4-0.7c-0.2-0.2-0.5-0.4-0.7-0.5c-0.3-0.1-0.7-0.2-1.1-0.2H34.4z"/>
			<path class="st2" d="M48.6,144.3h-4.2v-1.8h10.3v1.8h-4.2v10.9h-2V144.3z"/>
			<path class="st2" d="M65.8,151.6v-9.1h2v12.7h-1.5l-7.2-9v9h-2.1v-12.7h1.6L65.8,151.6z"/>
			<path class="st2" d="M81,155.2h-9.4v-12.7h9.3v2h-7.3v3.4h7v1.9h-7v3.4H81V155.2z"/>
			<path class="st2" d="M95,155.2h-2.4l-3.9-4.4H86v4.4h-2v-12.7h5.9c0.7,0,1.3,0.1,1.9,0.3c0.5,0.2,1,0.5,1.4,0.9
				c0.4,0.4,0.7,0.8,0.8,1.3c0.2,0.5,0.3,1,0.3,1.6c0,0.4-0.1,0.9-0.2,1.3c-0.1,0.4-0.3,0.8-0.6,1.2c-0.3,0.4-0.6,0.7-1.1,0.9
				c-0.5,0.3-1,0.5-1.6,0.5l3.8,4.2L95,155.2z M86.1,144.3v4.6h3.9c0.4,0,0.7-0.1,1.1-0.2c0.3-0.1,0.5-0.3,0.8-0.5
				c0.2-0.2,0.3-0.5,0.4-0.7c0.1-0.3,0.2-0.6,0.1-0.9c0-0.3-0.1-0.6-0.1-0.9c-0.1-0.3-0.2-0.5-0.4-0.7c-0.2-0.2-0.5-0.4-0.8-0.5
				c-0.3-0.1-0.7-0.2-1.1-0.2L86.1,144.3z"/>
		</g>
	</g>
	<g>
		<g>
			<path class="st3" d="M253.2,113.6h-11.8c-2.9,0-5.2,2.4-5.2,5.2v40.1c0,2.9,2.4,5.2,5.2,5.2h11.8c2.9,0,5.2-2.3,5.3-5.2
				c0,0,0,0,0,0v-40.1C258.4,115.9,256.1,113.6,253.2,113.6"/>
			<path class="st4" d="M250.3,122.8v0.2c0.4,0.2,0.5,0.4,0.9,0.6c1,0.6,2.1,1.7,2,5.4c0.3,0.8,0.4,2.4,0.6,2.9
				c0.5,0.8,0.8,1.7,1,2.6c0,0,0.1,1.5,0.3,1.6c1,0.2,0.7,0.3,0.9,0.5c0.2,0.2,0.7,0.2,0.7,0.7c0.2,0.3,0.3,0.5,0.5,0.8v-19.4
				c0-2.2-1.8-4-4-4h-3.8c0.5,0.1,0.9,0.4,1.2,0.9c0.5,0,1.1,1.2,0.2,2.8c0.4,0.3,0.1,0.7-0.2,1.1c-0.1,0.2-0.2,0.4-0.4,0.4
				c-0.4,0.7-0.8,1.4-1.1,1.5c-0.1,0.2-0.1,0.4,0,0.6C249.4,122.3,249.9,122.5,250.3,122.8"/>
			<path class="st4" d="M257.2,140.8c-0.7,1.8-2.8,2.7-4.6,2s-2.7-2.8-2-4.6c0.4-1.1,1.3-1.9,2.5-2.1c-0.4-1-1.3-2.7-1.5-3.2
				s-0.8-3.9-1-4.6c-0.6,0.2-1.1,0.6-1.5,0.9c0,0.1-1.1,2.8-1.2,3c0,0.2,0,0.3,0,0.5c0,0,0.5,0.1,0.8,1s1.2,4.2,1.2,4.2
				s-0.2,0.2-0.2,0.2c1.1,3.8,0.7,5.4,1.2,6.5c0.6,1.6,0.8,1.4,1.4,2.7c0.4,1,0.8,4.7,1,4.9c0.5,0.5,0.8,1.1,0.9,1.8
				c-0.2,0.8-0.3,1.6-0.3,2.5c0.1,0.4,0.2,1.4,0.4,1.6c0,0,0.2,0.4,0.1,0.5c0,0.1-0.1,0.1-0.1,0.2c0.3,1.2,1.4,3.2-0.3,4.3l0,0
				c2-0.3,3.4-2,3.4-4L257.2,140.8z"/>
			<path class="st5" d="M252.7,158.1c-0.6-0.6-0.2-0.8-0.2-1.1c-0.4-1.8-1.8-2.8-1.1-3.4c-0.2-0.6-0.5-1.3-0.5-1.3
				c-1.6-1-3-2.2-4.3-3.6c-0.4-0.4-1-0.8-1.1-1.2c-1.4-1.7-2.6-3.5-3.7-5.4l-1-0.1c-0.5-1.9-2-3.6-2.1-5.5c0-0.9,0.2-1.8,0.5-2.6
				c0.2-0.3,0.4-0.6,0.7-0.8v-0.5c-2.3,0.1-1.6-0.2-2-1.1c-0.3-0.6-0.1-0.7,0-1.2c0.5-1.4,1-2.7,1.7-4c0.1-0.4,0.6-1.5,0.6-1.5
				c1.7-3.4,2.3-3.2,4.3-3.4l0.1-0.1c2-0.1,1.7-0.2,2-2.2c-0.3,0.1-0.4-0.6-0.4-0.6c-0.2-1.1,0.3-0.9,0.5-0.9c0-1.8,0.2-2.4,1.5-2.9
				h-6.8c-2.2,0-4,1.8-4,4v40.1c0,2.2,1.8,4,4,4h11.8C251.9,162.2,252.7,160.8,252.7,158.1"/>
			<path class="st3" d="M243.6,160.4v-7.3h1.4c0.8,0,1.3,0.4,1.3,1.5v1.1c0,0.7-0.2,1-0.5,1.2c0.3,0.2,0.5,0.7,0.5,1.1v1.1
				c0,1-0.5,1.4-1.3,1.4L243.6,160.4z M244.6,157.2v2.2h0.4c0.3,0,0.4-0.2,0.4-0.5v-1.2c0-0.4-0.1-0.5-0.4-0.5H244.6z M244.6,154.1
				v2.4h0.4c0.3,0,0.4-0.1,0.4-0.5v-1.4c0-0.3-0.1-0.5-0.4-0.5L244.6,154.1z M248.6,158.9h-0.9l-0.1,1.5h-1l0.9-7.3h1.4l0.9,7.3h-1
				L248.6,158.9z M248.2,153.9L248.2,153.9c-0.1,0.9-0.3,2.4-0.3,2.9l-0.1,1.2h0.8l-0.1-1.2C248.4,156.3,248.2,154.8,248.2,153.9
				 M240.7,160.4h-0.8v-7.3h1.3l1.1,6c-0.1-1.4-0.2-3.1-0.2-4.6v-1.3h0.9v7.2h-1.2l-1.1-5.8c0.1,1.3,0.1,2.4,0.1,3.5L240.7,160.4z"
				/>
		</g>
		<g>
			<path class="st3" d="M150.1,118.3c-2.6,1.9-5.8,2.6-8.9,1.8c-4.1-1-7.5-3.9-9.1-7.9c-1.6,4-5,6.9-9.1,7.9c-3.1,0.8-6.4,0.1-9-1.8
				h-1.3v33c0,1.5,0.6,2.9,1.6,4.1c1.7,2,4.5,3.4,8.4,3.9c2.6,0.2,5,1.3,7,3c0.9,0.9,1.7,2,2.3,3.1c0.7-1.1,1.4-2.2,2.3-3.1
				c2-1.7,4.4-2.8,7.1-3c3.9-0.6,6.8-1.9,8.4-3.9c1-1.1,1.5-2.6,1.6-4.1v-33L150.1,118.3z"/>
			<path class="st6" d="M150.2,119.6c-2.7,1.9-6.1,2.5-9.4,1.7c-3.7-0.9-6.9-3.1-8.9-6.4c-2,3.2-5.2,5.5-8.9,6.4
				c-3.2,0.8-6.6,0.2-9.3-1.7v31.7c0,1.1,0.4,5.6,9,6.9c2.9,0.3,5.5,1.4,7.7,3.3c0.6,0.6,1.1,1.2,1.5,1.9c0.4-0.7,0.9-1.3,1.5-1.9
				c2.1-1.9,4.8-3,7.7-3.3c8.5-1.2,9-5.8,9-6.9L150.2,119.6z"/>
			<path class="st3" d="M132.1,160.1c0,0,2.5-3.1,8.9-4c7.4-1.1,7.1-4.6,7.1-4.8v-16.6H116v16.6c0,0.2-0.2,3.6,7.1,4.8
				C129.6,157,132.1,160.1,132.1,160.1z"/>
			<path class="st7" d="M124.6,146.8v-7.9l-1-0.6v-2.1h4.5v2.1l-0.9,0.6V155l-2.4-0.7l-3.5-10.3v6.8l1.1,0.9v2.1l-4.8-1.2v-1.8
				l1.1-0.4v-11.4l-1.1-0.6v-2.1h3.7L124.6,146.8z"/>
			<path class="st7" d="M132.9,154l1,1.1v2l-4.8-1.8v-1.7l1.1-0.4v-14.4l-1.1-0.5v-2.1h8.3v4.2h-1.8l-0.6-1.7h-2.1v4.8h1.6l0.6-0.9
				h1.3v4.3h-1.3l-0.6-0.9h-1.6L132.9,154z"/>
			<path class="st7" d="M138.2,154.8v-2.1l1.2-1v-12.8l-1-0.5v-2.1h4.8v2.1l-0.9,0.5v12l2.1-0.6l0.4-3.1h2v5.3L138.2,154.8z"/>
			<path class="st3" d="M116.8,131.3l-1.5-1.1h1.8l0.6-1.7l0.6,1.7h1.8l-1.5,1.1l0.6,1.7l-1.5-1l-1.4,1L116.8,131.3z"/>
			<path class="st3" d="M123.1,131.3l-1.4-1.1h1.8l0.6-1.7l0.6,1.7h1.8l-1.4,1.1l0.5,1.7l-1.4-1l-1.4,1L123.1,131.3z"/>
			<path class="st3" d="M116.8,125.6l-1.5-1.1h1.8l0.6-1.7l0.6,1.7h1.8l-1.5,1.1l0.5,1.7l-1.4-1l-1.4,1L116.8,125.6z"/>
			<path class="st3" d="M123.1,125.6l-1.4-1.1h1.8l0.6-1.7l0.6,1.7h1.8l-1.4,1.1l0.5,1.7l-1.4-1l-1.4,1L123.1,125.6z"/>
			<path class="st3" d="M147.8,133l-1.4-1l-1.4,1l0.5-1.7l-1.5-1.1h1.8l0.6-1.7l0.6,1.7h1.8l-1.5,1.1L147.8,133z"/>
			<path class="st3" d="M141.5,133l-1.4-1l-1.4,1l0.5-1.7l-1.4-1.1h1.8l0.6-1.7l0.6,1.7h1.8l-1.4,1.1L141.5,133z"/>
			<path class="st3" d="M147.8,127.3l-1.4-1l-1.4,1l0.5-1.7l-1.5-1.1h1.8l0.6-1.7l0.6,1.7h1.8l-1.5,1.1L147.8,127.3z"/>
			<path class="st3" d="M141.5,127.3l-1.4-1l-1.4,1l0.5-1.7l-1.4-1.1h1.8l0.6-1.7l0.6,1.7h1.8l-1.4,1.1L141.5,127.3z"/>
			<path class="st3" d="M136.1,121c-0.7,0.4-1.3,0.9-1.8,1.4c0.2,0.1,0.4,0.3,0.6,0.4l-0.5,0.4c-0.6-0.5-1.2-0.8-1.9-1l0.6-0.4
				c0.3,0.1,0.6,0.2,0.6,0.2c0.7-0.5,1.4-1,2.2-1.3c-0.1,0-0.3,0-0.4,0c-4.7,0.1-9,3.5-8.1,9.5c0.1,0.8,0.3,1.6,0.6,2.3
				c0.2-1.9,0.8-3.8,1.6-5.5c-0.2-0.1-0.5-0.1-0.7-0.2c0.1-0.2,0.3-0.5,0.3-0.5c0.8,0.2,1.5,0.5,2.2,1l-0.3,0.5
				c-0.2-0.2-0.4-0.3-0.7-0.5c-0.9,1.7-1.6,3.4-2,5.3c0,0.1,0.1,0.1,0.2,0.1c5.1-0.7,7.5-3.3,8.2-6.1c0.5-1.8,0.3-3.7-0.3-5.4
				C136.3,121.2,136.2,121,136.1,121z M131.7,126.6c-0.6-0.5-1.4-0.9-2.2-1l0.4-0.6c0.8,0.2,1.6,0.5,2.2,1.1
				C131.9,126.3,131.8,126.5,131.7,126.6L131.7,126.6z M132.5,125.4c-0.6-0.5-1.4-0.9-2.2-1.1c0.1-0.2,0.3-0.3,0.4-0.5
				c0.8,0.1,1.6,0.5,2.2,1L132.5,125.4z M133.4,124.3c-0.6-0.5-1.4-0.8-2.1-1c0.2-0.2,0.4-0.3,0.5-0.5c0.8,0.2,1.5,0.5,2.1,1
				L133.4,124.3z"/>
		</g>
		<g>
			<path class="st3" d="M277.3,143.8c0-4.3,2-5.9,2.4-9.9c-0.6,3.6-2.9,6.4-2.9,9.9c0,1.2,0.2,2.5,0.5,3.7c1.5,4.9,5.9,7.6,10.1,8.7
				C281.7,154.9,277.5,149.8,277.3,143.8z"/>
			<path class="st3" d="M314.8,143.8c0-1.9-0.5-3.8-1.3-5.6c-0.8-1.9-1.7-3.7-1.7-5.8c0,5.2,2.5,6.7,2.5,11.4
				c-0.1,6-4.3,11.1-10.1,12.4C310.1,154.7,314.8,150.4,314.8,143.8z"/>
			<path class="st8" d="M312.6,123.1c-1.4-0.5-2.5-1.6-2.9-3l-1.4-3.7l-0.6,2.3c1.3,5.8,6,6.2,6,6.2l1.9-0.9L312.6,123.1z"/>
			<path class="st8" d="M290.2,144.1l-2.5-3.8l-2.8,2.1c0.6,0,1,0.4,1,1v7.2l2-1.5v-5.1l2.2,3.4l2.1-1.5V137l-2,1.5L290.2,144.1z"/>
			<path class="st8" d="M298.1,135.8l-2.2,1.6v-3.3l-3,2.2c0.6,0,1,0.4,1,1v7.2l2-1.5v-3.3l2.2-1.6v3.3l1.9-1.4v-8.9l-1.9,1.4V135.8
				z"/>
			<path class="st8" d="M303.7,135v-6.6l-3,2.2c0.6,0,1,0.4,1,1v7.2l5.5-4.1c-0.1-0.8-0.1-1.5,0-2.3L303.7,135z"/>
			
				<linearGradient id="SVGID_1_" gradientUnits="userSpaceOnUse" x1="12735.876" y1="12481.375" x2="12753.9658" y2="12481.375" gradientTransform="matrix(0.28 0 0 0.28 -3228.04 -3358.5898)">
				<stop  offset="0.11" style="stop-color:#FFFFFF"/>
				<stop  offset="0.24" style="stop-color:#DBDDDF"/>
				<stop  offset="0.44" style="stop-color:#A6ADB0"/>
				<stop  offset="0.54" style="stop-color:#929A9E"/>
			</linearGradient>
			<path class="st9" d="M278.4,132.4c0,5.1-2.5,6.1-2.5,11.4c0,1.5,0.3,3.1,0.8,4.5c0.2-0.3,0.4-0.6,0.6-0.9
				c-0.4-1.2-0.5-2.4-0.5-3.7c0-3.5,2.3-6.4,2.9-9.9c0-0.5,0.1-1,0.1-1.5c-0.1-2.6-0.7-5.2-1.9-7.5L276,124l1.3,3
				C278,128.7,278.4,130.6,278.4,132.4z"/>
			
				<linearGradient id="SVGID_2_" gradientUnits="userSpaceOnUse" x1="313.7405" y1="762.22" x2="313.7405" y2="748.03" gradientTransform="matrix(1 0 0 1 0 -624)">
				<stop  offset="0" style="stop-color:#FFFFFF"/>
				<stop  offset="0.35" style="stop-color:#FFFFFF"/>
				<stop  offset="0.56" style="stop-color:#929A9E"/>
				<stop  offset="1" style="stop-color:#929A9E"/>
			</linearGradient>
			<path class="st10" d="M311.8,132.4c0,2.1,0.9,3.9,1.7,5.8h1c-0.9-1.8-1.3-3.8-1.3-5.8c0-1.9,0.4-3.7,1.2-5.4l1.3-3l-1.9,0.9
				C312.5,127.2,311.9,129.8,311.8,132.4z"/>
			
				<linearGradient id="SVGID_3_" gradientUnits="userSpaceOnUse" x1="276.7155" y1="778.46" x2="295.8256" y2="778.46" gradientTransform="matrix(1 0 0 1 0 -624)">
				<stop  offset="0.15" style="stop-color:#FFFFFF"/>
				<stop  offset="0.21" style="stop-color:#FAFAFA"/>
				<stop  offset="0.28" style="stop-color:#EBECED"/>
				<stop  offset="0.37" style="stop-color:#D2D5D7"/>
				<stop  offset="0.45" style="stop-color:#AFB5B8"/>
				<stop  offset="0.51" style="stop-color:#929A9E"/>
			</linearGradient>
			<path class="st11" d="M294.3,157.8c-1.6-0.6-3.7-0.8-6.8-1.6c-4.2-1.1-8.6-3.8-10.1-8.7c-0.3,0.2-0.5,0.5-0.6,0.9
				c1.7,4.6,5.6,8,10.4,9.2c2.9,0.7,4.2,0.8,6.4,1.4c0.3,0.3,2.3,2.5,2.3,2.5v-2.1C295.8,159.4,294.5,157.9,294.3,157.8z"/>
			
				<linearGradient id="SVGID_4_" gradientUnits="userSpaceOnUse" x1="307.1488" y1="777.4902" x2="284.5099" y2="745.1519" gradientTransform="matrix(1 0 0 1 0 -624)">
				<stop  offset="0" style="stop-color:#929A9E"/>
				<stop  offset="1.000000e-02" style="stop-color:#979FA2"/>
				<stop  offset="0.12" style="stop-color:#C0C4C6"/>
				<stop  offset="0.2" style="stop-color:#D9DBDC"/>
				<stop  offset="0.25" style="stop-color:#E2E3E4"/>
				<stop  offset="0.75" style="stop-color:#E2E3E4"/>
				<stop  offset="0.8" style="stop-color:#DADCDD"/>
				<stop  offset="0.88" style="stop-color:#C4C8CA"/>
				<stop  offset="0.97" style="stop-color:#A1A8AB"/>
				<stop  offset="1" style="stop-color:#929A9E"/>
			</linearGradient>
			<path class="st12" d="M287.8,154.8c3.5,0.9,5.7,1,7.2,1.7c0,0,0.5,0.5,0.8,0.7c0.2-0.2,0.8-0.7,0.8-0.7c1.5-0.7,3.8-0.8,7.2-1.7
				c4.4-1.1,9.1-5,9.1-11c0-4.3-2.5-5.9-2.5-11.4c0-2.3,0.5-4.5,1.4-6.6c-2.3-0.7-4-2.5-4.7-4.7c-1.4,1.2-3.2,1.9-5.1,2
				c-2.3-0.1-4.5-1-6.2-2.6c-1.7,1.6-3.9,2.5-6.2,2.6c-1.9-0.1-3.7-0.8-5.1-2c-0.7,2.3-2.5,4.1-4.7,4.7c0.9,2.1,1.4,4.3,1.4,6.6
				c0,5.5-2.5,7.1-2.5,11.4C278.7,149.9,283.4,153.7,287.8,154.8z M311.3,143.8c0,5.1-4.1,8.5-7.9,9.5c-2.7,0.7-6.1,1.1-7.1,1.6
				c-0.2,0.1-0.4,0.3-0.5,0.5c-0.2-0.2-0.3-0.3-0.5-0.5c-1-0.6-4.4-0.9-7.1-1.6l-0.3-0.1l21.6-16.2
				C310.2,139.6,311.3,141.3,311.3,143.8L311.3,143.8z M309.8,126.7c-0.6,1.8-0.9,3.8-0.9,5.7c0,0.9,0.1,1.8,0.2,2.6l-23.1,17.4
				c-3.2-1.5-5.4-4.7-5.6-8.3l26.6-20C307.7,125.2,308.7,126.1,309.8,126.7L309.8,126.7z M282.8,132.4c0-1.9-0.3-3.9-1-5.7
				c1.4-0.8,2.5-1.9,3.3-3.2c1.4,0.8,2.9,1.2,4.5,1.2c2.2,0,4.4-0.8,6.2-2.1c1.8,1.3,3.9,2.1,6.2,2.1c0.4,0,0.9,0,1.3-0.1l-22.7,17
				C281.3,139,282.8,136.9,282.8,132.4L282.8,132.4z"/>
			
				<linearGradient id="SVGID_5_" gradientUnits="userSpaceOnUse" x1="283.2955" y1="743.04" x2="295.8255" y2="743.04" gradientTransform="matrix(1 0 0 1 0 -624)">
				<stop  offset="0.25" style="stop-color:#FFFFFF"/>
				<stop  offset="0.34" style="stop-color:#FAFAFA"/>
				<stop  offset="0.45" style="stop-color:#EBECED"/>
				<stop  offset="0.57" style="stop-color:#D2D5D7"/>
				<stop  offset="0.7" style="stop-color:#AFB5B8"/>
				<stop  offset="0.79" style="stop-color:#929A9E"/>
			</linearGradient>
			<path class="st13" d="M289.7,121.7c3.7,0,6.2-3.2,6.2-3.2v-2l-2,1.9c-1.1,1.1-2.6,1.7-4.2,1.8c-1.2,0-2.4-0.5-3.3-1.4l-3-2.5
				l0.6,2.3C283.9,118.7,286.8,121.7,289.7,121.7z"/>
			
				<linearGradient id="SVGID_6_" gradientUnits="userSpaceOnUse" x1="295.8255" y1="773.815" x2="315.7057" y2="773.815" gradientTransform="matrix(1 0 0 1 0 -624)">
				<stop  offset="0.2" style="stop-color:#FFFFFF"/>
				<stop  offset="0.33" style="stop-color:#FAFBFB"/>
				<stop  offset="0.47" style="stop-color:#EDEEEF"/>
				<stop  offset="0.62" style="stop-color:#D7DADB"/>
				<stop  offset="0.78" style="stop-color:#B8BDC0"/>
				<stop  offset="0.93" style="stop-color:#929A9E"/>
			</linearGradient>
			<path class="st14" d="M314.8,143.8c0,6.6-4.7,10.9-10.6,12.4c-3.1,0.8-5.3,1-6.8,1.6c-0.2,0.2-1.5,1.6-1.5,1.6v2.1
				c0,0,2-2.2,2.3-2.5c2.2-0.6,3.5-0.7,6.4-1.4c5.9-1.5,11.2-6.6,11.2-13.8c0-1.9-0.4-3.9-1.2-5.6h-1
				C314.3,140,314.7,141.9,314.8,143.8z"/>
			
				<linearGradient id="SVGID_7_" gradientUnits="userSpaceOnUse" x1="295.8255" y1="743.05" x2="308.3555" y2="743.05" gradientTransform="matrix(1 0 0 1 0 -624)">
				<stop  offset="0.25" style="stop-color:#FFFFFF"/>
				<stop  offset="0.34" style="stop-color:#FAFAFA"/>
				<stop  offset="0.45" style="stop-color:#EBECED"/>
				<stop  offset="0.57" style="stop-color:#D2D5D7"/>
				<stop  offset="0.7" style="stop-color:#AFB5B8"/>
				<stop  offset="0.79" style="stop-color:#929A9E"/>
			</linearGradient>
			<path class="st15" d="M302,121.7c2.9,0,5.7-2.9,5.7-2.9l0.6-2.3l-3,2.5c-0.9,0.8-2.1,1.3-3.3,1.4c-1.6-0.1-3.1-0.7-4.2-1.8
				l-1.9-1.9v2C297.4,120.4,299.6,121.5,302,121.7z"/>
			
				<linearGradient id="SVGID_8_" gradientUnits="userSpaceOnUse" x1="275.9655" y1="744.67" x2="283.9255" y2="744.67" gradientTransform="matrix(1 0 0 1 0 -624)">
				<stop  offset="0.39" style="stop-color:#FFFFFF"/>
				<stop  offset="0.47" style="stop-color:#FAFAFA"/>
				<stop  offset="0.56" style="stop-color:#EBECED"/>
				<stop  offset="0.67" style="stop-color:#D2D5D7"/>
				<stop  offset="0.79" style="stop-color:#AFB5B8"/>
				<stop  offset="0.87" style="stop-color:#929A9E"/>
			</linearGradient>
			<path class="st16" d="M283.9,118.8l-0.6-2.3l-1.4,3.7c-0.4,1.4-1.5,2.5-2.9,3L276,124l1.9,0.9
				C277.9,124.9,282.6,124.5,283.9,118.8z"/>
			<path class="st17" d="M280.6,141.6l22.7-17c-0.4,0.1-0.9,0.1-1.3,0.1c-2.2,0-4.4-0.8-6.2-2.1c-1.8,1.3-3.9,2.1-6.2,2.1
				c-1.6,0-3.1-0.4-4.5-1.2c-0.8,1.4-1.9,2.5-3.3,3.2c0.6,1.8,1,3.8,1,5.7C282.8,136.9,281.3,139,280.6,141.6z"/>
			<path class="st17" d="M287.9,153.2l0.3,0.1c2.8,0.7,6.1,1.1,7.1,1.6c0.2,0.1,0.4,0.3,0.5,0.5c0.2-0.2,0.3-0.3,0.5-0.5
				c1-0.6,4.4-0.9,7.1-1.6c3.8-1,7.9-4.3,7.9-9.5c0-2.6-1.1-4.2-1.9-6.8L287.9,153.2z"/>
			<path class="st17" d="M277.8,132.4c0,4.9-2.5,6-2.5,11.4c0,7.8,6,12.9,11.6,14.4c2.8,0.7,3.7,0.7,6.2,1.4l2.6,2.8l2.6-2.8
				c2.5-0.6,3.4-0.7,6.2-1.4c5.6-1.4,11.6-6.6,11.6-14.4c0-5.4-2.5-6.5-2.5-11.4c0-1.8,0.4-3.5,1.1-5.2l1.6-3.6l-3.8-1.1
				c-1.2-0.4-2.1-1.4-2.5-2.6l-1.7-4.5l-3.7,3.1c-0.8,0.7-1.9,1.2-3,1.2c-1.4-0.1-2.8-0.6-3.8-1.6l-2.4-2.3l-2.4,2.3
				c-1,1-2.4,1.6-3.8,1.6c-1.1-0.1-2.1-0.5-3-1.2l-3.6-3.1l-1.6,4.5c-0.3,1.2-1.3,2.2-2.5,2.6l-3.7,1.1l1.6,3.6
				C277.5,128.9,277.8,130.6,277.8,132.4z M279,123.1c1.4-0.5,2.5-1.6,2.9-3l1.4-3.7l3,2.5c0.9,0.8,2.1,1.3,3.3,1.4
				c1.6,0,3.1-0.7,4.2-1.8l2-1.9l1.9,1.9c1.1,1.1,2.6,1.7,4.2,1.8c1.2,0,2.4-0.5,3.3-1.4l3-2.5l1.4,3.7c0.4,1.4,1.5,2.5,2.9,3
				l3.1,0.9l-1.3,3c-0.8,1.7-1.2,3.5-1.2,5.4c0,2,0.5,4,1.3,5.8c0.8,1.8,1.2,3.7,1.2,5.6c0,7.1-5.3,12.2-11.2,13.8
				c-2.9,0.7-4.2,0.8-6.4,1.4c-0.3,0.3-2.3,2.5-2.3,2.5s-2-2.2-2.3-2.5c-2.2-0.6-3.5-0.7-6.4-1.4c-4.8-1.2-8.7-4.6-10.4-9.2
				c-0.5-1.5-0.8-3-0.8-4.5c0-5.3,2.5-6.3,2.5-11.4c0-1.9-0.4-3.7-1.2-5.4l-1.3-3L279,123.1z"/>
			<path class="st17" d="M285.9,152.4l23.2-17.4c-0.1-0.9-0.2-1.7-0.2-2.6c0-1.9,0.3-3.9,0.9-5.7c-1.1-0.6-2.1-1.5-2.9-2.6l-26.6,20
				C280.6,147.7,282.7,150.9,285.9,152.4z M303.7,128.4v6.6l3.5-2.6c-0.1,0.8-0.1,1.5,0,2.3l-5.5,4.1v-7.2c0-0.6-0.4-1-1-1
				L303.7,128.4z M295.9,134.2v3.3l2.2-1.6v-3.3l1.9-1.4v8.9l-1.9,1.4v-3.3l-2.2,1.6v3.3l-2,1.5v-7.2c0-0.6-0.4-1-1-1L295.9,134.2z
				 M287.7,140.4l2.5,3.8v-5.7l2-1.5v8.9l-2.1,1.5l-2.2-3.4v5.1l-1.9,1.4v-7.2c0-0.6-0.4-1-1-1L287.7,140.4z"/>
			<path class="st17" d="M279.8,133.9c-0.4,4-2.4,5.7-2.4,9.9c0.1,6,4.3,11.1,10.1,12.4c3.1,0.8,5.2,1,6.8,1.6
				c0.2,0.2,1.5,1.6,1.5,1.6s1.3-1.4,1.5-1.6c1.6-0.6,3.7-0.8,6.8-1.6c5.8-1.3,10-6.4,10.1-12.4c0-4.8-2.5-6.2-2.5-11.4
				c0.1-2.6,0.7-5.2,1.9-7.5c0,0-4.8-0.4-6-6.2c0,0-2.9,2.9-5.7,2.9c-3.7,0-6.2-3.2-6.2-3.2s-2.5,3.2-6.2,3.2
				c-2.9,0-5.7-2.9-5.7-2.9c-1.3,5.8-6,6.2-6,6.2c1.2,2.3,1.9,4.9,1.9,7.5C279.8,132.9,279.8,133.4,279.8,133.9z M279.8,125.9
				c2.3-0.7,4-2.5,4.7-4.7c1.4,1.2,3.2,1.9,5.1,2c2.3-0.1,4.5-1,6.2-2.6c1.7,1.6,3.9,2.5,6.2,2.6c1.9-0.1,3.7-0.8,5.1-2
				c0.7,2.3,2.5,4,4.7,4.7c-0.9,2.1-1.4,4.3-1.4,6.6c0,5.5,2.5,7.1,2.5,11.4c0,6.1-4.7,9.9-9.1,11c-3.5,0.9-5.7,1-7.2,1.7
				c0,0-0.5,0.5-0.8,0.7c-0.2-0.2-0.8-0.7-0.8-0.7c-1.5-0.7-3.8-0.8-7.2-1.7c-4.4-1.1-9.1-5-9.1-11c0-4.3,2.5-5.9,2.5-11.4
				C281.2,130.2,280.7,127.9,279.8,125.9L279.8,125.9z"/>
		</g>
		<g>
			<path class="st3" d="M171.2,124.4h45.1c2.4,0,4.4,2,4.4,4.4V149c0,2.4-2,4.4-4.4,4.4h-45.1c-2.4,0-4.4-2-4.4-4.4v-20.2
				C166.8,126.3,168.7,124.4,171.2,124.4z"/>
			<path class="st18" d="M218.4,126.7c-0.5-0.6-1.3-0.9-2.1-0.9h-12.6l7.3,12.2l0.7,0.1l0.4,0.6v0.5l0.5,0.1l0.4,0.6v0.5l0.5,0.1
				c0,0,0.5,0.5,0.5,0.5v1.1c0.6,0.5,1.2,1,1.9,1.3c0.6,0.2,0.7,1.3,1.1,1.8c0.5,0.8,1.2,1.1,1,1.5c-0.3,1.2-1.5,3.2-2.7,3.3h-4.5
				v1.9h5.6c1.6,0,2.9-1.3,2.9-2.9c0,0,0,0,0,0l0,0v-20.2C219.2,128,218.9,127.2,218.4,126.7"/>
			<path class="st19" d="M199.4,125.8h-28.2c-1.6,0-2.9,1.3-2.9,2.9V149c0,1.6,1.3,2.9,2.9,2.9h18.3l-1.1-1.9h-2.2
				c0-5.4,1.9-8.4,4-9c0.3-0.1,0.2-1.5-0.2-2c-0.4,0-0.8,0-1.3,0c-0.3-0.1-0.1-0.4-0.1-0.4l1-2.2l-0.1-0.6h-3.8l3.1-2.2
				c0.2-5.8,6.1-6.2,9.6-3.8c2.1,1.4,2.3,4.2,2.1,6.1c0,0.1-0.6,0-0.6,0s-0.4,2.1,0.6,2.1h4.1c1.2,0,2.3,0.4,3.3,1.1l0.4-1.4
				L199.4,125.8z M174.3,147.7c-1.1,0-2-0.9-2-2c0-1.1,0.9-2,2-2c1.1,0,2,0.9,2,2l0,0C176.3,146.8,175.4,147.7,174.3,147.7"/>
		</g>
		<g>
			<g>
				<g>
					<g>
						<g>
							<g>
								<g>
									<path class="st20" d="M334.7,156.1c0,3.2,2.6,5.7,5.7,5.7h22c3.2,0,5.7-2.6,5.7-5.7v-34.6c0-3.1-2.5-5.6-5.6-5.7
										c0,0,0,0,0,0h-22.2c-3.1-0.1-5.7,2.4-5.7,5.5V156.1"/>
								</g>
							</g>
						</g>
					</g>
				</g>
			</g>
			<g>
				<g>
					<path class="st3" d="M340.5,117.1c-2.4,0-4.4,2-4.4,4.4v34.6c0,2.4,2,4.4,4.4,4.4h22c2.4,0,4.4-2,4.4-4.4v-34.6
						c0-2.4-2-4.4-4.4-4.4L340.5,117.1"/>
					<path class="st20" d="M340.4,117.8c-2.1,0-3.8,1.7-3.8,3.8v34.6c0,2.1,1.7,3.8,3.8,3.8h22c2.1,0,3.8-1.7,3.8-3.8c0,0,0,0,0,0
						l0,0v-34.6c0-2.1-1.7-3.8-3.8-3.8l0,0L340.4,117.8"/>
					<path class="st3" d="M341.5,123.7h0.6c0.3,0,0.6,0.2,0.6,0.5c0,0,0,0,0,0l0,0c0,0.3-0.3,0.6-0.7,0.6h-0.5V123.7 M340.3,126.2
						c0,0.1-0.1,0.2-0.2,0.2c0,0,0,0,0,0h-0.4v0.5h2.4v-0.5h-0.4c-0.1,0-0.2-0.1-0.2-0.2c0,0,0,0,0,0v-1h0.7c1.1,0,1.7-0.3,1.7-1
						c0-0.8-0.6-1-1.6-1h-2.5v0.5h0.4c0.1,0,0.2,0.1,0.2,0.2c0,0,0,0,0,0L340.3,126.2L340.3,126.2z"/>
					<path class="st3" d="M348.6,125.4h-0.3c-0.1,0-0.2,0.1-0.2,0.2c0,0,0,0,0,0v1.3h-0.5l-0.1-0.3c-0.4,0.2-0.8,0.4-1.2,0.3
						c-1.1,0.1-2-0.6-2.1-1.7c0,0,0,0,0,0c0-0.1,0-0.1,0-0.2c-0.1-1.1,0.7-2,1.8-2c0,0,0,0,0,0c0.1,0,0.2,0,0.3,0
						c0.4,0,0.8,0.1,1.1,0.4l0.1-0.3h0.5v1.3h-0.5c0-0.5-0.4-0.8-1-0.8c-0.6,0-1,0.5-1,1.4s0.3,1.4,1,1.4c0.2,0,0.5-0.1,0.5-0.3
						v-0.5c0-0.1-0.1-0.2-0.2-0.2c0,0,0,0,0,0h-0.4v-0.5h2.2L348.6,125.4"/>
					<path class="st3" d="M353.2,126.5c-0.4-0.1-0.4-0.2-0.6-0.5l-1.2-2.7h-0.9l-1.2,2.5c-0.2,0.4-0.3,0.7-0.8,0.7v0.4h1.8v-0.4h0
						c-0.1,0-0.5,0-0.5-0.2c0-0.1,0-0.2,0.1-0.2l0.1-0.2h1.4l0.1,0.2c0,0.1,0.1,0.2,0.1,0.3c0,0.2-0.4,0.2-0.5,0.2v0.4h2.1
						L353.2,126.5L353.2,126.5 M350.2,125.4l0.5-1.2l0.5,1.2H350.2z"/>
					<path class="st3" d="M363.5,128.4c0.4-0.6,0.6-1.3,0.6-2c-0.4-0.7-1-1.1-1.8-1.4c-0.2-0.1-0.4-0.1-0.6,0.1l0,0l-9.6-5.9
						c-0.7-0.4-1.7,0.9-1.9,1.3c-0.1,0.2,0.2,0.4,0.4,0.5c0.9,0.6,1.3-0.9,1.6-1.4l9.3,5.9c0,0.2,0,0.3,0.1,0.5
						c0,0.8,0.6,1.4,0.2,2.5c-0.1,1.6-1.8,1.9-2.7,2.8c-0.9,1-2.5,0.7-3.2,1.4l0,0c-0.6-1.6-1-1.7-1.1-2.3c-0.7-0.3-1.6-0.3-2.3,0
						c-0.7,0.4-1,1.2-0.9,2c0,0.7,1.1,1.6,1.6,1.9c-0.3,0.4-0.5,0.9-0.5,1.4c0.1,1,0.4,1.9,1,2.6c0.7,1,1.3,2.1,1.9,3.2
						c0,0.1,0.1,0.2,0,0.3c-0.1,0.1-0.9,1.6,0.6,3.8c0.6,1.2,1,2.5,1.5,3.7c0.3,0.4-0.5,0.1-0.5,1c-2.1,1.4-4,2.8-5.9,4.4
						c-0.4,0.1-0.9,0.1-1.1,0.6c-0.1,0.2-0.2,0.4-0.3,0.6c-0.5,0.6-0.9,1.4-1,2.2c-0.1,0.4,0,1.3,0.5,1.5c0.1,0.1,0.3,0.1,0.4,0
						c0.2-0.3,0.3-0.6,0.4-0.9c0.3-0.8,0.9-1.1,2-2.2c0.6,0.2,0.9,0.5,1.5,0.7c1.6-1.5,3.3-2.9,4.9-4.5c-0.2,2.4-0.5,4.9-0.5,5.6
						c-0.1,0.5-0.1,1,0.2,1.5c0,0,2.7,0.2,3.2,0.1c0.3,0,0.3-0.2,0.3-0.2s0.2-0.4-0.4-0.8c-0.3-0.3-0.6-0.7-1-1
						c0.3-0.1,0.7-0.1,1.1-0.2c-0.1-1.3-0.2-4-0.2-7.6c-0.4-4.3-1.2-8.5-2.3-12.6c1.3-1.5,1.3-2.4,2.5-3.9
						C362.2,132,362.9,130.2,363.5,128.4 M358,135.3c0-0.1-0.2-0.6-0.3-1l1.7-1.1c0,0.1,0,0.1,0,0.2
						C358.9,134,358.5,134.7,358,135.3L358,135.3z"/>
					<path class="st3" d="M347.5,155.3c-0.1,0-0.3-0.1-0.3-0.2v-0.3c0-0.4-0.1-0.8-0.2-1.2c0-0.1-0.1-0.2-0.2-0.2h0.1
						c0.4-0.4,0.7-0.9,0.6-1.4c0-0.4-0.1-0.8-0.3-1.2l0,0c-0.3-0.4-0.7-0.8-1.2-0.9c0.7-0.4,1.1-1.3,1.1-2.1v-3.2h0.8v-2.1h-2
						c1.2-0.7,1.9-2,1.8-3.4c0.1-1.3-0.6-2.6-1.7-3.3h0.8v-1.9h-1.5v-3.6c0.3,0,0.6,0.3,0.6,0.9v0.6h2.1v-3.6h-8.2v3.6h2v-0.6
						c0-0.5,0.2-0.9,0.6-0.9v3.5h-1.4v1.9h0.6c-1.2,0.7-1.8,2-1.7,3.4c-0.1,1.4,0.6,2.7,1.8,3.4h-1.8v2.1h0.8v3.4
						c0,0.7,0.4,1.4,1,1.8h-1.9v2.1h0.8c0.1,0,0.1,0.1,0.1,0.1c0,0,0,0,0,0v3.3c0,0.2-0.1,0.1-0.1,0.2h-0.8v2h5v-0.6
						c0.4,0.4,1,0.7,1.7,0.7h1.7v-2.1L347.5,155.3 M343.6,144.5h1.2c0,0,0.1,0,0.1,0.1v3.2c0,0.2-0.2,0.4-0.7,0.4s-0.7-0.2-0.7-0.4
						v-3.2C343.5,144.5,343.6,144.5,343.6,144.5L343.6,144.5z M344.6,139.1c0,1.2-0.3,1.9-0.8,1.9c-0.3,0-0.8,0-0.8-1.9
						s0.6-1.9,0.8-1.9C344,137.1,344.6,137.1,344.6,139.1z M343.6,155.3c-0.1,0-0.1-0.1-0.1-0.1v-0.8h0.5c0.2,0,0.2,0,0.2,0.2v0.7
						H343.6z M343.5,152.5v-0.9h0.8c0.2,0,0.4,0.2,0.4,0.4l0,0l0,0c0,0.2-0.2,0.4-0.4,0.4L343.5,152.5z"/>
					<path class="st21" d="M347.3,128.7h-7v2.5h1v-0.1c0-1,0.6-1.4,1.1-1.4c0.3,0,0.5,0.1,0.5,0.2v4c0,0.2-0.1,0.4-0.3,0.4h-1.1v0.9
						h4.8v-0.9H345c-0.2,0-0.3-0.2-0.3-0.4V130c0-0.1,0.2-0.2,0.5-0.2c0.5,0,1.1,0.4,1.1,1.4v0.1h1L347.3,128.7L347.3,128.7"/>
					<path class="st21" d="M347.4,143h-2.9v1h0.6c0.1,0,0.3,0,0.4,0.1c0.1,0.1,0.1,0.2,0.1,0.3v3.6c0,0.2-0.2,0.8-1.2,0.8
						c-0.8,0-1.3-0.3-1.3-0.8v-3.4c0-0.4,0.2-0.4,0.4-0.4h0.6v-1h-3.7v1h0.4c0.1,0,0.3,0,0.4,0.1c0.1,0.1,0.1,0.2,0.1,0.3v3.5
						c0,0.9,0.8,1.8,2.9,1.8s2.5-1.1,2.5-2v-3.3c0-0.4,0.2-0.4,0.4-0.4h0.5L347.4,143"/>
					<path class="st21" d="M343.7,135.7c-1.7-0.2-3.3,1.1-3.5,2.8c0,0,0,0,0,0c0,0.2,0,0.4,0,0.5c0,1.9,1.6,3.5,3.5,3.5
						s3.5-1.6,3.5-3.5c0.1-1.7-1.2-3.3-2.9-3.4C344.1,135.7,343.9,135.7,343.7,135.7 M343.8,141.5c-0.6,0-1.4-0.2-1.4-2.4
						c0-1.7,0.5-2.4,1.4-2.4s1.4,0.7,1.4,2.4C345.1,140.7,344.7,141.5,343.8,141.5L343.8,141.5z"/>
					<path class="st21" d="M347.5,155.9c-0.4,0.1-0.7-0.2-0.8-0.6c0-0.1,0-0.1,0-0.2v-0.3c0-0.3,0-0.7-0.2-1
						c-0.2-0.3-0.4-0.5-0.7-0.6c0.3-0.1,0.5-0.2,0.7-0.4c0.3-0.3,0.5-0.6,0.5-1c0-0.3-0.1-0.7-0.2-1c-0.4-0.6-1-0.8-1.7-0.7h-4.8v1
						h0.6c0.2,0,0.3,0.1,0.3,0.3v4.1c0,0.2-0.1,0.3-0.3,0.3h-0.6v1h4v-1h-1c-0.2,0-0.3-0.2-0.3-0.4v-1.6h1.2c0.3,0,0.6,0.2,0.6,0.6
						c0,0,0,0,0,0c0,0,0,0,0,0.1v0.4c0,0.4,0,0.7,0.1,1.1c0.3,0.6,0.9,0.9,1.5,0.8h1.2v-1L347.5,155.9 M342.9,151h1.4
						c0.4-0.1,0.7,0.2,0.9,0.5c0.1,0.3,0.1,0.6,0,0.8c-0.1,0.4-0.5,0.6-0.8,0.6H343L342.9,151L342.9,151z"/>
				</g>
			</g>
		</g>
		<g>
			<polygon class="st22" points="421.4,122.8 412.5,154.9 424.8,154.9 433.7,122.8 			"/>
			<polygon class="st23" points="403.7,122.8 394.8,154.9 400.7,154.9 409.6,122.8 			"/>
			<polygon class="st23" points="412,122.8 403.1,154.9 409.1,154.9 418,122.8 			"/>
			<polygon class="st24" points="390.6,122.8 381.7,154.9 385.4,154.9 394.3,122.8 			"/>
			<polygon class="st24" points="396.7,122.8 387.7,154.9 391.4,154.9 400.3,122.8 			"/>
		</g>
	</g>
</g>
</svg>
