<svg id="NFL" xmlns="http://www.w3.org/2000/svg" viewBox="0 0 192.76 192.76"><defs><style>.cls-1,.cls-3{fill:#fff;}.cls-2{fill:#1d3667;}.cls-3{isolation:isolate;}.cls-4{fill:#d42027;}</style></defs><title>NFL_200x200</title><path class="cls-1" d="M161.69,22.15a38.89,38.89,0,0,1-32.32,6.54A47.22,47.22,0,0,1,96.38.28a47.22,47.22,0,0,1-33,28.41,38.87,38.87,0,0,1-32.32-6.54H26.44V141.28a23.49,23.49,0,0,0,5.62,14.88c6,7.34,16.28,12.09,30.42,14.13,11.28,1.64,19.61,5.18,25.48,10.83,4.32,4.16,8.42,11.36,8.42,11.36s4.25-7.35,8.41-11.36c5.88-5.65,14.22-9.2,25.48-10.83,14.15-2,24.39-6.79,30.43-14.13a23.53,23.53,0,0,0,5.62-14.88V22.15Z"/><path class="cls-2" d="M162.12,26.79a41.58,41.58,0,0,1-33.77,6c-23-5.76-32-23-32-23s-8.95,17.24-32,23a41.58,41.58,0,0,1-33.77-6V141.27c0,3.89,1.63,20.42,32.45,24.87,12.16,1.76,21.25,5.67,27.78,12a37,37,0,0,1,5.51,6.66,37.29,37.29,0,0,1,5.5-6.66c6.53-6.29,15.62-10.2,27.79-12,30.82-4.45,32.45-21,32.45-24.87Z"/><path class="cls-3" d="M96.38,173.11s8.94-11,32.19-14.61c26.62-4.11,25.83-16.61,25.83-17.25V81.3h-116v60c0,.63-.79,13.14,25.83,17.25C87.43,162.08,96.38,173.11,96.38,173.11Z"/><path class="cls-4" d="M69.33,125.12V96.6l-3.58-2V87.2H82v7.4l-3.41,2v58.16l-8.71-2.61L57.33,115v24.5l4,3.07v7.55l-17.49-4.45v-6.43l4-1.57v-41l-4.09-2V87.2H57Z"/><path class="cls-4" d="M99.33,151.19l3.49,4.18v7.4L85.5,156.3V150l3.82-1.56V96.6l-3.8-1.92V87.2h30.07v15H109l-2-6.18H99.33v17.4h5.74l2.26-3.3h4.61v15.48h-4.61l-2.18-3.13H99.33Z"/><path class="cls-4" d="M118.44,153.81v-7.39l4.3-3.53V96.6l-3.67-1.92V87.2h17.34v7.48L133,96.6V140l7.45-2,1.43-11.38H149v19Z"/><path class="cls-1" d="M41.37,69l-5.24-4h6.41L44.66,59l2.12,6.07h6.41l-5.25,4,1.93,6.17-5.21-3.66L39.44,75.2Z"/><path class="cls-1" d="M64.14,69l-5.24-4h6.41L67.43,59l2.12,6.07H76l-5.25,4,1.93,6.17-5.21-3.66L62.21,75.2Z"/><path class="cls-1" d="M41.37,48.48l-5.24-3.95h6.41l2.12-6.07,2.12,6.07h6.41l-5.25,3.95,1.93,6.17L44.66,51l-5.22,3.66Z"/><path class="cls-1" d="M64.14,48.48,58.9,44.53h6.41l2.12-6.07,2.12,6.07H76l-5.25,3.95,1.93,6.17L67.43,51l-5.22,3.66Z"/><path class="cls-1" d="M153.32,75.2l-5.22-3.67-5.21,3.67L144.82,69l-5.25-4H146L148.1,59l2.12,6.07h6.41l-5.25,4Z"/><path class="cls-1" d="M130.55,75.2l-5.22-3.67-5.21,3.67L122.05,69l-5.25-4h6.41L125.33,59l2.12,6.07h6.41l-5.25,4Z"/><path class="cls-1" d="M153.32,54.65,148.1,51l-5.21,3.66,1.93-6.17-5.25-3.95H146l2.12-6.07,2.12,6.07h6.41l-5.25,3.95Z"/><path class="cls-1" d="M130.55,54.65,125.33,51l-5.21,3.66,1.93-6.17-5.25-3.95h6.41l2.12-6.07,2.12,6.07h6.41l-5.25,3.95Z"/><path class="cls-1" d="M110.84,32a30.91,30.91,0,0,0-6.52,5.14,18.23,18.23,0,0,1,2.37,1.62c-.57.51-1.15,1.06-1.7,1.57a17.73,17.73,0,0,0-7-3.55c.66-.47,1.36-.94,2.06-1.39a18.1,18.1,0,0,1,2.1.69,35.86,35.86,0,0,1,8-4.67,3.84,3.84,0,0,0-1.57-.19C91.69,31.43,76.18,44,79.1,65.53c.32,2.28,1.21,6.43,2.33,8.25a65.15,65.15,0,0,1,5.72-20,17.84,17.84,0,0,0-2.54-.71c.4-.85,1-1.94,1-1.94a17.68,17.68,0,0,1,7.83,3.58c-.55.88-.91,1.45-1.17,1.9A18.11,18.11,0,0,0,89.76,55a69.47,69.47,0,0,0-7.41,19.14c0,.24.53.36.93.31,18.45-2.39,27.09-11.8,29.72-22A31.41,31.41,0,0,0,111.85,33C111.69,32.61,111.37,32,110.84,32ZM95,52.32a17.68,17.68,0,0,0-8-3.75s.84-1.37,1.32-2.09a18,18,0,0,1,8,3.85C95.85,51,95.38,51.7,95,52.32Zm3-4.25a17.88,17.88,0,0,0-8-3.88c.47-.61,1-1.25,1.55-1.85a18.07,18.07,0,0,1,8,3.81C99,46.79,98.47,47.45,98,48.07ZM101.37,44a17.86,17.86,0,0,0-7.74-3.76c.68-.64,1.37-1.19,2-1.69A17.76,17.76,0,0,1,103,42.27C102.45,42.86,101.89,43.43,101.37,44Z"/></svg>